<svg xmlns="http://www.w3.org/2000/svg" viewBox="0 0 38.06 30.92"><defs><style>.cls-1{fill:#fff;}</style></defs><title>ToolkitIcon</title><g id="Layer_2" data-name="Layer 2"><g id="Instructions"><path class="cls-1" d="M35.88,7.14H28.54V2.38A2.37,2.37,0,0,0,26.16,0H11.89A2.38,2.38,0,0,0,9.51,2.38V7.14H2.18A2.18,2.18,0,0,0,0,9.32v21.6H38.06V9.32A2.18,2.18,0,0,0,35.88,7.14Zm-24-4.76H26.16V7.14H11.89ZM35.68,19H30.92v2.38a2.38,2.38,0,0,1-2.38,2.38H26.16a2.38,2.38,0,0,1-2.37-2.38V19H14.27v2.38a2.38,2.38,0,0,1-2.38,2.38H9.51a2.38,2.38,0,0,1-2.37-2.38V19H2.38V9.51h33.3Z"/><rect class="cls-1" x="26.16" y="16.65" width="2.38" height="4.76"/><rect class="cls-1" x="9.51" y="16.65" width="2.38" height="4.76"/></g></g></svg>