<svg xmlns="http://www.w3.org/2000/svg" viewBox="0 0 70.96 57.65"><defs><style>.cls-1{fill:#fff;}</style></defs><title>ToolkitIcon</title><g id="Layer_2" data-name="Layer 2"><g id="Layer_4" data-name="Layer 4"><path class="cls-1" d="M66.89,13.3H53.22V4.43A4.44,4.44,0,0,0,48.78,0H22.17a4.44,4.44,0,0,0-4.43,4.43V13.3H4.07A4.07,4.07,0,0,0,0,17.37V57.65H71V17.37A4.07,4.07,0,0,0,66.89,13.3ZM22.17,4.43H48.78V13.3H22.17ZM66.52,35.48H57.65v4.43a4.43,4.43,0,0,1-4.43,4.44H48.78a4.43,4.43,0,0,1-4.43-4.44V35.48H26.61v4.43a4.44,4.44,0,0,1-4.44,4.44H17.74a4.44,4.44,0,0,1-4.44-4.44V35.48H4.43V17.74H66.52Z"/></g></g></svg>